<mxfile host="app.diagrams.net" agent="Mozilla/5.0 (Windows NT 10.0; Win64; x64) AppleWebKit/537.36 (KHTML, like Gecko) Chrome/111.0.0.0 Safari/537.36" version="26.0.6" pages="3">
  <diagram name="框架总览" id="uBe0KBeMEflmX0RF1UmR">
    <mxGraphModel dx="683" dy="364" grid="1" gridSize="10" guides="1" tooltips="1" connect="1" arrows="1" fold="1" page="1" pageScale="1" pageWidth="827" pageHeight="1169" math="0" shadow="0">
      <root>
        <mxCell id="0" />
        <mxCell id="1" parent="0" />
        <mxCell id="2a-IRuq7mnlYj_9dDppM-5" style="edgeStyle=orthogonalEdgeStyle;rounded=0;orthogonalLoop=1;jettySize=auto;html=1;entryX=0;entryY=0.5;entryDx=0;entryDy=0;" edge="1" parent="1" source="2a-IRuq7mnlYj_9dDppM-1" target="2a-IRuq7mnlYj_9dDppM-2">
          <mxGeometry relative="1" as="geometry" />
        </mxCell>
        <mxCell id="2a-IRuq7mnlYj_9dDppM-6" style="edgeStyle=orthogonalEdgeStyle;rounded=0;orthogonalLoop=1;jettySize=auto;html=1;entryX=0;entryY=0.5;entryDx=0;entryDy=0;" edge="1" parent="1" source="2a-IRuq7mnlYj_9dDppM-1" target="2a-IRuq7mnlYj_9dDppM-4">
          <mxGeometry relative="1" as="geometry" />
        </mxCell>
        <mxCell id="2a-IRuq7mnlYj_9dDppM-7" style="edgeStyle=orthogonalEdgeStyle;rounded=0;orthogonalLoop=1;jettySize=auto;html=1;entryX=0;entryY=0.5;entryDx=0;entryDy=0;" edge="1" parent="1" source="2a-IRuq7mnlYj_9dDppM-1" target="2a-IRuq7mnlYj_9dDppM-3">
          <mxGeometry relative="1" as="geometry" />
        </mxCell>
        <mxCell id="2a-IRuq7mnlYj_9dDppM-1" value="总览" style="rounded=1;whiteSpace=wrap;html=1;" vertex="1" parent="1">
          <mxGeometry x="40" y="130" width="70" height="30" as="geometry" />
        </mxCell>
        <mxCell id="2a-IRuq7mnlYj_9dDppM-2" value="底层资源加载框架" style="rounded=1;whiteSpace=wrap;html=1;" vertex="1" parent="1">
          <mxGeometry x="160" y="80" width="120" height="30" as="geometry" />
        </mxCell>
        <mxCell id="2a-IRuq7mnlYj_9dDppM-3" value="Excel导表工具" style="rounded=1;whiteSpace=wrap;html=1;" vertex="1" parent="1">
          <mxGeometry x="160" y="180" width="120" height="30" as="geometry" />
        </mxCell>
        <mxCell id="2a-IRuq7mnlYj_9dDppM-4" value="UI框架（选用）" style="rounded=1;whiteSpace=wrap;html=1;" vertex="1" parent="1">
          <mxGeometry x="160" y="130" width="120" height="30" as="geometry" />
        </mxCell>
        <mxCell id="DLNOte_e3ZJ-k1gn9shK-1" value="其他" style="rounded=1;whiteSpace=wrap;html=1;" vertex="1" parent="1">
          <mxGeometry x="160" y="230" width="120" height="30" as="geometry" />
        </mxCell>
        <mxCell id="uMdmJv5CUY5snvvGkuqP-1" value="飞书链接：https://m1shbr3frq.feishu.cn/docx/NB45dYkJmoK0l6xDwpWcO2tznLc?from=from_copylink" style="text;html=1;align=center;verticalAlign=middle;whiteSpace=wrap;rounded=0;fontColor=#1A1A1A;" vertex="1" parent="1">
          <mxGeometry x="20" y="20" width="560" height="40" as="geometry" />
        </mxCell>
      </root>
    </mxGraphModel>
  </diagram>
  <diagram id="9YImlSPOTGCWo5q1eOsy" name="导表工具使用手册">
    <mxGraphModel dx="683" dy="364" grid="1" gridSize="10" guides="1" tooltips="1" connect="1" arrows="1" fold="1" page="1" pageScale="1" pageWidth="827" pageHeight="1169" math="0" shadow="0">
      <root>
        <mxCell id="0" />
        <mxCell id="1" parent="0" />
        <mxCell id="P09jOrVPY44q_KdLa61G-1" value="导表工具使用手册" style="rounded=1;whiteSpace=wrap;html=1;" vertex="1" parent="1">
          <mxGeometry x="50" y="130" width="120" height="30" as="geometry" />
        </mxCell>
      </root>
    </mxGraphModel>
  </diagram>
  <diagram id="7L4tJu3QnOuxyr8Kibb6" name="导表工具实现">
    <mxGraphModel dx="819" dy="437" grid="1" gridSize="10" guides="1" tooltips="1" connect="1" arrows="1" fold="1" page="1" pageScale="1" pageWidth="827" pageHeight="1169" math="0" shadow="0">
      <root>
        <mxCell id="0" />
        <mxCell id="1" parent="0" />
        <mxCell id="nhzHG48Y-XfVZyGlwt31-1" value="整个流程" style="rounded=0;whiteSpace=wrap;html=1;labelBackgroundColor=none;fillColor=#F08E81;strokeColor=#FFFFFF;fontColor=#1A1A1A;" vertex="1" parent="1">
          <mxGeometry x="10" y="100" width="120" height="30" as="geometry" />
        </mxCell>
        <mxCell id="nhzHG48Y-XfVZyGlwt31-2" value="BinarySerializeOpt" style="rounded=1;whiteSpace=wrap;html=1;labelBackgroundColor=none;fillColor=#F08E81;strokeColor=#FFFFFF;fontColor=#1A1A1A;" vertex="1" parent="1">
          <mxGeometry x="147.5" y="242.5" width="120" height="25" as="geometry" />
        </mxCell>
        <mxCell id="nhzHG48Y-XfVZyGlwt31-8" value="" style="edgeStyle=orthogonalEdgeStyle;rounded=0;orthogonalLoop=1;jettySize=auto;html=1;labelBackgroundColor=none;strokeColor=#182E3E;fontColor=default;" edge="1" parent="1" source="nhzHG48Y-XfVZyGlwt31-3" target="nhzHG48Y-XfVZyGlwt31-5">
          <mxGeometry relative="1" as="geometry">
            <Array as="points">
              <mxPoint x="290" y="95" />
              <mxPoint x="290" y="115" />
            </Array>
          </mxGeometry>
        </mxCell>
        <mxCell id="nhzHG48Y-XfVZyGlwt31-11" value="编辑器下" style="edgeLabel;html=1;align=center;verticalAlign=middle;resizable=0;points=[];labelBackgroundColor=none;fontColor=#1A1A1A;" vertex="1" connectable="0" parent="nhzHG48Y-XfVZyGlwt31-8">
          <mxGeometry x="-0.1095" y="-1" relative="1" as="geometry">
            <mxPoint x="-29" y="17" as="offset" />
          </mxGeometry>
        </mxCell>
        <mxCell id="nhzHG48Y-XfVZyGlwt31-3" value="Excel" style="rounded=1;whiteSpace=wrap;html=1;labelBackgroundColor=none;fillColor=#F08E81;strokeColor=#FFFFFF;fontColor=#1A1A1A;" vertex="1" parent="1">
          <mxGeometry x="165" y="80" width="50" height="30" as="geometry" />
        </mxCell>
        <mxCell id="nhzHG48Y-XfVZyGlwt31-9" value="" style="edgeStyle=orthogonalEdgeStyle;rounded=0;orthogonalLoop=1;jettySize=auto;html=1;labelBackgroundColor=none;strokeColor=#182E3E;fontColor=default;" edge="1" parent="1" source="nhzHG48Y-XfVZyGlwt31-5" target="nhzHG48Y-XfVZyGlwt31-6">
          <mxGeometry relative="1" as="geometry" />
        </mxCell>
        <mxCell id="nhzHG48Y-XfVZyGlwt31-12" value="编辑器下" style="edgeLabel;html=1;align=center;verticalAlign=middle;resizable=0;points=[];labelBackgroundColor=none;fontColor=#1A1A1A;" vertex="1" connectable="0" parent="nhzHG48Y-XfVZyGlwt31-9">
          <mxGeometry x="-0.2143" y="-2" relative="1" as="geometry">
            <mxPoint y="-2" as="offset" />
          </mxGeometry>
        </mxCell>
        <mxCell id="nhzHG48Y-XfVZyGlwt31-5" value="xml" style="rounded=1;whiteSpace=wrap;html=1;labelBackgroundColor=none;fillColor=#F08E81;strokeColor=#FFFFFF;fontColor=#1A1A1A;" vertex="1" parent="1">
          <mxGeometry x="370" y="100" width="40" height="30" as="geometry" />
        </mxCell>
        <mxCell id="nhzHG48Y-XfVZyGlwt31-10" value="" style="edgeStyle=orthogonalEdgeStyle;rounded=0;orthogonalLoop=1;jettySize=auto;html=1;labelBackgroundColor=none;strokeColor=#182E3E;fontColor=default;" edge="1" parent="1" source="nhzHG48Y-XfVZyGlwt31-6" target="nhzHG48Y-XfVZyGlwt31-7">
          <mxGeometry relative="1" as="geometry" />
        </mxCell>
        <mxCell id="nhzHG48Y-XfVZyGlwt31-13" value="运行时" style="edgeLabel;html=1;align=center;verticalAlign=middle;resizable=0;points=[];labelBackgroundColor=none;fontColor=#1A1A1A;" vertex="1" connectable="0" parent="nhzHG48Y-XfVZyGlwt31-10">
          <mxGeometry x="-0.0686" relative="1" as="geometry">
            <mxPoint as="offset" />
          </mxGeometry>
        </mxCell>
        <mxCell id="nhzHG48Y-XfVZyGlwt31-6" value="Binary" style="rounded=1;whiteSpace=wrap;html=1;labelBackgroundColor=none;fillColor=#F08E81;strokeColor=#FFFFFF;fontColor=#1A1A1A;" vertex="1" parent="1">
          <mxGeometry x="500" y="100" width="50" height="30" as="geometry" />
        </mxCell>
        <mxCell id="nhzHG48Y-XfVZyGlwt31-7" value="class的实例化数据" style="rounded=1;whiteSpace=wrap;html=1;labelBackgroundColor=none;fillColor=#F08E81;strokeColor=#FFFFFF;fontColor=#1A1A1A;" vertex="1" parent="1">
          <mxGeometry x="640" y="100" width="120" height="30" as="geometry" />
        </mxCell>
        <mxCell id="nhzHG48Y-XfVZyGlwt31-14" value="策划填写" style="text;html=1;align=center;verticalAlign=middle;whiteSpace=wrap;rounded=0;labelBackgroundColor=none;fontColor=#1A1A1A;" vertex="1" parent="1">
          <mxGeometry x="160" y="60" width="60" height="20" as="geometry" />
        </mxCell>
        <mxCell id="nhzHG48Y-XfVZyGlwt31-17" style="edgeStyle=orthogonalEdgeStyle;rounded=0;orthogonalLoop=1;jettySize=auto;html=1;entryX=0;entryY=0.5;entryDx=0;entryDy=0;labelBackgroundColor=none;strokeColor=#182E3E;fontColor=default;" edge="1" parent="1" source="nhzHG48Y-XfVZyGlwt31-15" target="nhzHG48Y-XfVZyGlwt31-5">
          <mxGeometry relative="1" as="geometry">
            <Array as="points">
              <mxPoint x="290" y="150" />
              <mxPoint x="290" y="115" />
            </Array>
          </mxGeometry>
        </mxCell>
        <mxCell id="nhzHG48Y-XfVZyGlwt31-15" value="class" style="rounded=1;whiteSpace=wrap;html=1;labelBackgroundColor=none;fillColor=#F08E81;strokeColor=#FFFFFF;fontColor=#1A1A1A;" vertex="1" parent="1">
          <mxGeometry x="165" y="130" width="50" height="30" as="geometry" />
        </mxCell>
        <mxCell id="nhzHG48Y-XfVZyGlwt31-16" value="程序根据Excel写数据类" style="text;html=1;align=center;verticalAlign=middle;whiteSpace=wrap;rounded=0;labelBackgroundColor=none;fontColor=#1A1A1A;" vertex="1" parent="1">
          <mxGeometry x="130" y="170" width="155" height="20" as="geometry" />
        </mxCell>
        <mxCell id="nhzHG48Y-XfVZyGlwt31-18" value="前期准备" style="rounded=0;whiteSpace=wrap;html=1;labelBackgroundColor=none;fillColor=#F08E81;strokeColor=#FFFFFF;fontColor=#1A1A1A;" vertex="1" parent="1">
          <mxGeometry x="10" y="240" width="120" height="30" as="geometry" />
        </mxCell>
        <mxCell id="nhzHG48Y-XfVZyGlwt31-19" value="序列化工具" style="text;html=1;align=center;verticalAlign=middle;whiteSpace=wrap;rounded=0;labelBackgroundColor=none;fontColor=#1A1A1A;" vertex="1" parent="1">
          <mxGeometry x="140" y="220" width="155" height="20" as="geometry" />
        </mxCell>
      </root>
    </mxGraphModel>
  </diagram>
</mxfile>
